<mxfile host="app.diagrams.net" modified="2023-10-28T00:47:55.445Z" agent="Mozilla/5.0 (X11; Linux x86_64) AppleWebKit/537.36 (KHTML, like Gecko) Chrome/118.0.0.0 Safari/537.36" etag="gUcb8w_DIyuwjcIzJkNs" version="22.0.8" type="github">
  <diagram name="Pagina-1" id="zLtLsO0ySY47t27Yj4bS">
    <mxGraphModel dx="2389" dy="969" grid="1" gridSize="10" guides="1" tooltips="1" connect="1" arrows="1" fold="1" page="1" pageScale="1" pageWidth="827" pageHeight="1169" math="0" shadow="0">
      <root>
        <mxCell id="0" />
        <mxCell id="1" parent="0" />
        <mxCell id="QD_6PpsXOqeVRtljdFyT-5" style="edgeStyle=orthogonalEdgeStyle;curved=1;rounded=0;orthogonalLoop=1;jettySize=auto;html=1;exitX=0;exitY=0.5;exitDx=0;exitDy=0;entryX=0.5;entryY=0;entryDx=0;entryDy=0;dashed=1;" parent="1" source="QD_6PpsXOqeVRtljdFyT-11" target="9P4-RmKASeGlcGMQjBVW-34" edge="1">
          <mxGeometry relative="1" as="geometry">
            <Array as="points">
              <mxPoint x="-118" y="310" />
              <mxPoint x="-168" y="310" />
            </Array>
          </mxGeometry>
        </mxCell>
        <mxCell id="QD_6PpsXOqeVRtljdFyT-3" style="edgeStyle=orthogonalEdgeStyle;curved=1;rounded=0;orthogonalLoop=1;jettySize=auto;html=1;exitX=0;exitY=0.5;exitDx=0;exitDy=0;entryX=1;entryY=0.5;entryDx=0;entryDy=0;dashed=1;" parent="1" source="QD_6PpsXOqeVRtljdFyT-9" target="9P4-RmKASeGlcGMQjBVW-34" edge="1">
          <mxGeometry relative="1" as="geometry" />
        </mxCell>
        <mxCell id="9P4-RmKASeGlcGMQjBVW-32" style="edgeStyle=none;rounded=0;orthogonalLoop=1;jettySize=auto;html=1;exitX=0;exitY=1;exitDx=0;exitDy=0;entryX=0.897;entryY=0.083;entryDx=0;entryDy=0;endArrow=baseDash;endFill=0;entryPerimeter=0;" parent="1" source="9P4-RmKASeGlcGMQjBVW-34" target="9P4-RmKASeGlcGMQjBVW-39" edge="1">
          <mxGeometry relative="1" as="geometry" />
        </mxCell>
        <mxCell id="9P4-RmKASeGlcGMQjBVW-33" style="edgeStyle=none;rounded=0;orthogonalLoop=1;jettySize=auto;html=1;exitX=1;exitY=1;exitDx=0;exitDy=0;" parent="1" source="9P4-RmKASeGlcGMQjBVW-34" target="9P4-RmKASeGlcGMQjBVW-37" edge="1">
          <mxGeometry relative="1" as="geometry" />
        </mxCell>
        <mxCell id="9P4-RmKASeGlcGMQjBVW-34" value="a" style="ellipse;whiteSpace=wrap;html=1;aspect=fixed;" parent="1" vertex="1">
          <mxGeometry x="-188" y="350" width="40" height="40" as="geometry" />
        </mxCell>
        <mxCell id="9P4-RmKASeGlcGMQjBVW-35" style="edgeStyle=none;rounded=0;orthogonalLoop=1;jettySize=auto;html=1;exitX=0.5;exitY=1;exitDx=0;exitDy=0;entryX=0.5;entryY=0;entryDx=0;entryDy=0;" parent="1" source="9P4-RmKASeGlcGMQjBVW-37" target="9P4-RmKASeGlcGMQjBVW-40" edge="1">
          <mxGeometry relative="1" as="geometry" />
        </mxCell>
        <mxCell id="9P4-RmKASeGlcGMQjBVW-36" style="edgeStyle=none;rounded=0;orthogonalLoop=1;jettySize=auto;html=1;exitX=0;exitY=1;exitDx=0;exitDy=0;entryX=0.945;entryY=0.26;entryDx=0;entryDy=0;entryPerimeter=0;" parent="1" source="9P4-RmKASeGlcGMQjBVW-37" target="9P4-RmKASeGlcGMQjBVW-42" edge="1">
          <mxGeometry relative="1" as="geometry" />
        </mxCell>
        <mxCell id="9P4-RmKASeGlcGMQjBVW-37" value="b" style="ellipse;whiteSpace=wrap;html=1;aspect=fixed;" parent="1" vertex="1">
          <mxGeometry x="-118" y="430" width="40" height="40" as="geometry" />
        </mxCell>
        <mxCell id="9P4-RmKASeGlcGMQjBVW-38" style="edgeStyle=none;rounded=0;orthogonalLoop=1;jettySize=auto;html=1;exitX=0.5;exitY=1;exitDx=0;exitDy=0;entryX=0.5;entryY=0;entryDx=0;entryDy=0;" parent="1" source="9P4-RmKASeGlcGMQjBVW-39" target="9P4-RmKASeGlcGMQjBVW-42" edge="1">
          <mxGeometry relative="1" as="geometry" />
        </mxCell>
        <mxCell id="9P4-RmKASeGlcGMQjBVW-39" value="c" style="ellipse;whiteSpace=wrap;html=1;aspect=fixed;" parent="1" vertex="1">
          <mxGeometry x="-268" y="430" width="40" height="40" as="geometry" />
        </mxCell>
        <mxCell id="9P4-RmKASeGlcGMQjBVW-40" value="e" style="ellipse;whiteSpace=wrap;html=1;aspect=fixed;" parent="1" vertex="1">
          <mxGeometry x="-118" y="530" width="40" height="40" as="geometry" />
        </mxCell>
        <mxCell id="9P4-RmKASeGlcGMQjBVW-41" style="edgeStyle=none;rounded=0;orthogonalLoop=1;jettySize=auto;html=1;exitX=1;exitY=1;exitDx=0;exitDy=0;entryX=0.25;entryY=0;entryDx=0;entryDy=0;entryPerimeter=0;endArrow=baseDash;endFill=0;" parent="1" source="9P4-RmKASeGlcGMQjBVW-42" target="9P4-RmKASeGlcGMQjBVW-43" edge="1">
          <mxGeometry relative="1" as="geometry" />
        </mxCell>
        <mxCell id="9P4-RmKASeGlcGMQjBVW-42" value="d" style="ellipse;whiteSpace=wrap;html=1;aspect=fixed;" parent="1" vertex="1">
          <mxGeometry x="-268" y="530" width="40" height="40" as="geometry" />
        </mxCell>
        <mxCell id="9P4-RmKASeGlcGMQjBVW-43" value="f" style="ellipse;whiteSpace=wrap;html=1;aspect=fixed;" parent="1" vertex="1">
          <mxGeometry x="-198" y="620" width="40" height="40" as="geometry" />
        </mxCell>
        <mxCell id="QD_6PpsXOqeVRtljdFyT-9" value="v-in:t1" style="ellipse;whiteSpace=wrap;html=1;aspect=fixed;fillColor=#E6E6E6;" parent="1" vertex="1">
          <mxGeometry x="-108" y="370" width="40" height="40" as="geometry" />
        </mxCell>
        <mxCell id="QD_6PpsXOqeVRtljdFyT-11" value="v-in:t3" style="ellipse;whiteSpace=wrap;html=1;aspect=fixed;fillColor=#E6E6E6;" parent="1" vertex="1">
          <mxGeometry x="-118" y="320" width="40" height="40" as="geometry" />
        </mxCell>
        <mxCell id="QD_6PpsXOqeVRtljdFyT-21" value="" style="edgeStyle=orthogonalEdgeStyle;curved=1;rounded=0;orthogonalLoop=1;jettySize=auto;html=1;exitX=1;exitY=0.5;exitDx=0;exitDy=0;entryX=0.5;entryY=1;entryDx=0;entryDy=0;dashed=1;" parent="1" source="9P4-RmKASeGlcGMQjBVW-40" target="QD_6PpsXOqeVRtljdFyT-29" edge="1">
          <mxGeometry relative="1" as="geometry">
            <mxPoint x="-78" y="550" as="sourcePoint" />
            <mxPoint x="72" y="370" as="targetPoint" />
            <Array as="points">
              <mxPoint x="-68" y="550" />
              <mxPoint x="-68" y="530" />
              <mxPoint x="-72" y="530" />
            </Array>
          </mxGeometry>
        </mxCell>
        <mxCell id="QD_6PpsXOqeVRtljdFyT-28" value="" style="edgeStyle=orthogonalEdgeStyle;curved=1;rounded=0;orthogonalLoop=1;jettySize=auto;html=1;exitX=0.5;exitY=1;exitDx=0;exitDy=0;dashed=1;entryX=0.5;entryY=0;entryDx=0;entryDy=0;" parent="1" source="9P4-RmKASeGlcGMQjBVW-40" target="QD_6PpsXOqeVRtljdFyT-27" edge="1">
          <mxGeometry relative="1" as="geometry">
            <mxPoint x="-84" y="564" as="sourcePoint" />
            <mxPoint x="252" y="630" as="targetPoint" />
            <Array as="points" />
          </mxGeometry>
        </mxCell>
        <mxCell id="QD_6PpsXOqeVRtljdFyT-27" value="&lt;font style=&quot;font-size: 11px;&quot;&gt;v-out:t2&lt;/font&gt;" style="ellipse;whiteSpace=wrap;html=1;aspect=fixed;fillColor=#E6E6E6;" parent="1" vertex="1">
          <mxGeometry x="-118" y="610" width="40" height="40" as="geometry" />
        </mxCell>
        <mxCell id="QD_6PpsXOqeVRtljdFyT-29" value="&lt;font style=&quot;font-size: 11px;&quot;&gt;v-out:t1&lt;/font&gt;" style="ellipse;whiteSpace=wrap;html=1;aspect=fixed;fillColor=#E6E6E6;" parent="1" vertex="1">
          <mxGeometry x="-92" y="479" width="40" height="40" as="geometry" />
        </mxCell>
      </root>
    </mxGraphModel>
  </diagram>
</mxfile>
